<svg width="19" height="19" fill="none" xmlns="http://www.w3.org/2000/svg"><path fill-rule="evenodd" clip-rule="evenodd" d="M9.117.8a8.7 8.7 0 0 0-2.75 16.956c.436.08.594-.19.594-.42 0-.207-.007-.754-.011-1.48-2.42.526-2.931-1.166-2.931-1.166-.396-1.005-.966-1.273-.966-1.273-.79-.54.06-.528.06-.528.873.061 1.332.896 1.332.896.776 1.33 2.037.946 2.532.723.08-.562.304-.945.553-1.163-1.932-.22-3.963-.966-3.963-4.3 0-.95.339-1.726.895-2.334-.09-.22-.388-1.105.086-2.303 0 0 .73-.234 2.392.892a8.355 8.355 0 0 1 2.178-.293c.74.004 1.483.1 2.178.293 1.66-1.126 2.39-.892 2.39-.892.475 1.198.176 2.083.087 2.303.558.608.894 1.384.894 2.334 0 3.343-2.034 4.078-3.972 4.293.312.269.59.8.59 1.612 0 1.162-.01 2.1-.01 2.386 0 .233.157.504.598.419A8.7 8.7 0 0 0 9.117.8Z" fill="#fff"/></svg>