<svg width="19" height="19" fill="none" xmlns="http://www.w3.org/2000/svg"><path fill-rule="evenodd" clip-rule="evenodd" d="M15.609 15.99c.393-.392.699-.863.9-1.38.192-.497.324-1.064.362-1.894.038-.832.047-1.098.047-3.216 0-2.118-.01-2.384-.047-3.216-.038-.83-.17-1.397-.363-1.893a3.822 3.822 0 0 0-.9-1.382 3.823 3.823 0 0 0-1.381-.9c-.496-.192-1.063-.324-1.893-.362-.832-.038-1.098-.047-3.216-.047-2.119 0-2.384.009-3.216.047-.83.038-1.397.17-1.894.362-.52.196-.991.503-1.381.9-.397.39-.704.861-.9 1.382-.193.496-.324 1.063-.362 1.893-.038.832-.047 1.098-.047 3.216 0 2.118.009 2.384.047 3.216.038.83.17 1.397.362 1.893.196.52.503.992.9 1.382.39.397.861.704 1.382.9.496.192 1.063.324 1.893.362.832.038 1.097.047 3.216.047 2.118 0 2.384-.009 3.216-.047.83-.038 1.397-.17 1.893-.363.518-.2.989-.506 1.382-.9ZM2.517 8.583v1.836c-.001.985-.001 1.24.024 1.8.032.703.07 1.22.188 1.608.112.374.239.755.651 1.214.413.46.81.668 1.317.82.507.154 1.144.186 1.697.212.628.028.876.028 2.192.028h1.421c1.009.002 1.264.002 1.83-.024.702-.032 1.218-.07 1.607-.188.374-.112.755-.239 1.214-.651.46-.413.668-.81.82-1.317.154-.507.187-1.144.212-1.697.028-.627.028-.875.028-2.186V8.969c0-1.316 0-1.565-.028-2.192-.026-.553-.058-1.19-.211-1.697-.153-.507-.361-.905-.82-1.317-.46-.413-.84-.539-1.215-.652-.389-.117-.905-.155-1.608-.187-.565-.026-.82-.026-1.83-.025l-.888.001h-.532c-1.316 0-1.564 0-2.192.028-.553.025-1.19.058-1.697.211-.506.153-.904.36-1.317.82-.412.46-.539.84-.651 1.214-.117.39-.156.906-.188 1.608-.025.56-.025.816-.024 1.8Zm6.6-1.782a2.7 2.7 0 1 0 0 5.4 2.7 2.7 0 0 0 0-5.4Zm-3.9 2.7a3.9 3.9 0 1 1 7.8 0 3.9 3.9 0 0 1-7.8 0Zm8.064-3.264a.9.9 0 1 0 0-1.8.9.9 0 0 0 0 1.8Z" fill="#fff"/></svg>