<svg width="19" height="19" fill="none" xmlns="http://www.w3.org/2000/svg"><path fill-rule="evenodd" clip-rule="evenodd" d="M8.898 6.136a3.653 3.653 0 0 1 3.652-3.654c1.247 0 2.233.625 2.866 1.515l-.078-.194a6.293 6.293 0 0 0 2.001-.765 3.16 3.16 0 0 1-1.386 1.745 6.312 6.312 0 0 0 1.81-.496v.002a6.409 6.409 0 0 1-1.573 1.63l-.028-.07c.033.216.05.435.05.652 0 4.38-3.336 9.469-9.469 9.469a9.415 9.415 0 0 1-5.101-1.496.5.5 0 0 1-.132-.718.45.45 0 0 1 .464-.264c1.184.14 2.371-.023 3.4-.522a3.612 3.612 0 0 1-2.168-2.274.45.45 0 0 1 .176-.51 3.595 3.595 0 0 1-1.303-2.772v-.04a.45.45 0 0 1 .497-.449 3.592 3.592 0 0 1-.47-1.781c0-.565.004-1.247.384-1.86a.45.45 0 0 1 .379-.212.5.5 0 0 1 .5.17 8.456 8.456 0 0 0 5.533 3.06 3.706 3.706 0 0 1-.004-.166Zm-2.155 8.833a8.415 8.415 0 0 1-3.083-.58c1.149-.138 2.258-.552 3.197-1.288a.45.45 0 0 0-.27-.804 2.7 2.7 0 0 1-2.22-1.235 3.62 3.62 0 0 0 .809-.123.45.45 0 0 0-.03-.876A2.706 2.706 0 0 1 3.063 8.08c.28.08.576.128.88.138a.45.45 0 0 0 .265-.823 2.703 2.703 0 0 1-1.202-2.25c0-.287.006-.536.037-.758a9.442 9.442 0 0 0 6.412 2.966.5.5 0 0 0 .512-.61 2.653 2.653 0 0 1 2.583-3.26c1.553 0 2.663 1.434 2.663 3.019 0 3.95-3.003 8.469-8.469 8.469Z" fill="#fff"/></svg>